<svg width="635" height="550" viewBox="0 0 635 550" fill="none" xmlns="http://www.w3.org/2000/svg">
<g clip-path="url(#clip0_87_179)">
<path d="M506.937 100.972C503.638 139.715 494.24 180.567 479.502 219.984C461.276 268.728 436.375 311.661 407.49 344.143L405.887 342.653C434.632 310.327 459.42 267.583 477.57 219.041C493.973 175.174 503.729 129.524 505.797 87.0459L507.845 87.4114C507.628 91.8977 507.325 96.4179 506.937 100.972Z" fill="#F2F2F2"/>
<path d="M520.074 325.982C479.503 394.786 430.282 443.947 381.477 464.407L380.49 462.478C428.957 442.159 477.89 393.25 518.276 324.76L520.074 325.982Z" fill="#F2F2F2"/>
<path d="M505.952 149.208C502.653 187.951 493.256 228.803 478.517 268.22C460.291 316.964 435.39 359.897 406.505 392.379L404.902 390.889C433.648 358.564 458.435 315.82 476.585 267.277C492.988 223.41 502.744 177.76 504.812 135.282L506.86 135.648C506.643 140.134 506.34 144.654 505.952 149.208Z" fill="#F2F2F2"/>
<path d="M50.4921 248.673H23.8727C23.304 248.674 22.7424 248.538 22.23 248.275C21.7176 248.012 21.2678 247.628 20.9142 247.153C20.565 246.691 20.3185 246.15 20.1935 245.571C20.0684 244.992 20.0679 244.391 20.1921 243.812C22.7273 231.887 22.5681 219.491 19.7274 207.645C19.5477 206.865 19.5912 206.045 19.8522 205.292C20.1131 204.539 20.5797 203.886 21.1917 203.417C34.8795 192.923 45.659 193.228 53.2312 204.324C53.5725 204.83 53.7993 205.413 53.8937 206.028C55.9169 218.993 56.0288 232.216 54.2255 245.218C54.1002 246.178 53.6529 247.057 52.9665 247.692C52.2801 248.327 51.4011 248.675 50.4921 248.673Z" fill="#E6E6E6"/>
<path d="M42.2394 220.256H33.0823C32.5759 220.256 32.0903 220.042 31.7322 219.66C31.3742 219.279 31.173 218.761 31.173 218.221C31.173 217.681 31.3742 217.164 31.7322 216.782C32.0903 216.4 32.5759 216.186 33.0823 216.186H42.2394C42.7451 216.187 43.2297 216.402 43.5869 216.784C43.9441 217.165 44.1447 217.682 44.1447 218.221C44.1447 218.76 43.9441 219.277 43.5869 219.659C43.2297 220.04 42.7451 220.255 42.2394 220.256Z" fill="white"/>
<path d="M42.2394 227.394H33.0823C32.5759 227.394 32.0903 227.18 31.7322 226.798C31.3742 226.417 31.173 225.899 31.173 225.359C31.173 224.819 31.3742 224.302 31.7322 223.92C32.0903 223.538 32.5759 223.324 33.0823 223.324H42.2394C42.7451 223.325 43.2297 223.54 43.5869 223.922C43.9441 224.303 44.1447 224.82 44.1447 225.359C44.1447 225.898 43.9441 226.415 43.5869 226.797C43.2297 227.178 42.7451 227.393 42.2394 227.394Z" fill="white"/>
<path d="M42.2394 234.532H33.0823C32.5759 234.532 32.0903 234.317 31.7322 233.936C31.3742 233.554 31.173 233.036 31.173 232.497C31.173 231.957 31.3742 231.439 31.7322 231.058C32.0903 230.676 32.5759 230.461 33.0823 230.461H42.2394C42.7451 230.463 43.2297 230.677 43.5869 231.059C43.9441 231.441 44.1447 231.958 44.1447 232.497C44.1447 233.036 43.9441 233.553 43.5869 233.934C43.2297 234.316 42.7451 234.531 42.2394 234.532Z" fill="white"/>
<path d="M534.273 375.366H507.654C507.085 375.367 506.523 375.231 506.011 374.968C505.499 374.705 505.049 374.322 504.695 373.847C504.346 373.384 504.099 372.843 503.974 372.264C503.849 371.686 503.849 371.084 503.973 370.505C506.508 358.581 506.349 346.185 503.508 334.338C503.329 333.559 503.372 332.739 503.633 331.986C503.894 331.232 504.361 330.579 504.973 330.111C518.66 319.617 529.44 319.922 537.012 331.018C537.353 331.523 537.58 332.106 537.675 332.721C539.698 345.687 539.81 358.91 538.006 371.912C537.881 372.872 537.434 373.75 536.747 374.385C536.061 375.02 535.182 375.369 534.273 375.366Z" fill="#E6E6E6"/>
<path d="M526.02 346.95H516.863C516.357 346.949 515.873 346.734 515.516 346.353C515.158 345.971 514.958 345.454 514.958 344.915C514.958 344.376 515.158 343.859 515.516 343.477C515.873 343.096 516.357 342.881 516.863 342.88H526.02C526.527 342.88 527.012 343.094 527.37 343.476C527.728 343.858 527.93 344.375 527.93 344.915C527.93 345.455 527.728 345.973 527.37 346.354C527.012 346.736 526.527 346.95 526.02 346.95Z" fill="white"/>
<path d="M526.02 354.088H516.863C516.357 354.087 515.873 353.872 515.516 353.49C515.158 353.109 514.958 352.592 514.958 352.053C514.958 351.514 515.158 350.997 515.516 350.615C515.873 350.234 516.357 350.019 516.863 350.018H526.02C526.527 350.018 527.012 350.232 527.37 350.614C527.728 350.995 527.93 351.513 527.93 352.053C527.93 352.593 527.728 353.11 527.37 353.492C527.012 353.874 526.527 354.088 526.02 354.088Z" fill="white"/>
<path d="M526.02 361.226H516.863C516.357 361.225 515.873 361.01 515.516 360.628C515.158 360.247 514.958 359.73 514.958 359.191C514.958 358.651 515.158 358.134 515.516 357.753C515.873 357.371 516.357 357.156 516.863 357.155H526.02C526.527 357.155 527.012 357.37 527.37 357.751C527.728 358.133 527.93 358.651 527.93 359.191C527.93 359.73 527.728 360.248 527.37 360.63C527.012 361.011 526.527 361.226 526.02 361.226Z" fill="white"/>
<path d="M166.983 483.902L165.323 459.288C154.447 453.492 142.409 450.615 130.254 450.904C147.355 464.995 145.985 493.157 157.828 512.431C161.565 518.412 166.517 523.42 172.317 527.084C178.116 530.747 184.615 532.973 191.331 533.595L205.563 542.324C207.191 530.853 206.467 519.143 203.441 508C200.415 496.856 195.158 486.545 188.033 477.776C183.99 472.898 179.388 468.583 174.333 464.932C171.223 474.453 166.983 483.902 166.983 483.902Z" fill="#F2F2F2"/>
<path d="M468.017 487.471L469.678 462.856C480.553 457.061 492.591 454.183 504.747 454.473C487.645 468.564 489.015 496.726 477.172 515.999C473.435 521.98 468.483 526.988 462.683 530.652C456.884 534.316 450.385 536.542 443.669 537.164L429.437 545.892C427.809 534.422 428.533 522.712 431.559 511.568C434.585 500.425 439.842 490.114 446.967 481.344C451.009 476.467 455.612 472.152 460.667 468.501C463.777 478.022 468.017 487.471 468.017 487.471Z" fill="#F2F2F2"/>
<path d="M309.967 209.696C318.75 209.696 325.87 202.106 325.87 192.744C325.87 183.382 318.75 175.792 309.967 175.792C301.184 175.792 294.064 183.382 294.064 192.744C294.064 202.106 301.184 209.696 309.967 209.696Z" fill="url(#paint0_linear_87_179)"/>
<path d="M318.131 185.679C317.891 185.436 317.574 185.3 317.243 185.3C316.912 185.3 316.594 185.436 316.355 185.679C312.981 188.548 309.95 191.848 307.331 195.505C306.688 194.178 306.045 192.852 305.402 191.526C304.66 189.995 302.492 191.347 303.234 192.877C304.174 194.817 305.115 196.756 306.055 198.696C306.169 198.894 306.328 199.058 306.518 199.171C306.708 199.285 306.922 199.345 307.139 199.345C307.357 199.345 307.571 199.285 307.761 199.171C307.951 199.058 308.11 198.894 308.223 198.696C311.014 194.506 314.35 190.76 318.131 187.571C318.364 187.319 318.495 186.979 318.495 186.625C318.495 186.271 318.364 185.931 318.131 185.679Z" fill="white"/>
<path d="M238.81 240.813L214.829 200.668L242.598 184.815L249.887 215.444L301.241 245.025C303.268 244.247 305.464 244.115 307.561 244.645C309.658 245.174 311.565 246.343 313.049 248.008C314.534 249.672 315.532 251.762 315.921 254.021C316.311 256.28 316.076 258.611 315.244 260.73C314.413 262.849 313.021 264.664 311.238 265.954C309.456 267.245 307.359 267.954 305.205 267.996C303.05 268.039 300.931 267.412 299.105 266.192C297.279 264.972 295.826 263.213 294.922 261.128L238.81 240.813Z" fill="#A0616A"/>
<path d="M197.308 152.517C189.773 164.31 216.551 207.177 216.551 207.177C217.855 204.179 230.325 237.838 232.414 235.85C238.35 230.199 247.642 214.458 252.807 213.756C255.761 213.355 245.956 191.024 245.956 191.024C245.956 191.024 241.475 177.838 235.395 160.994C233.759 156.197 231.011 151.921 227.407 148.561C223.803 145.202 219.46 142.869 214.783 141.779C214.783 141.779 204.843 140.724 197.308 152.517Z" fill="#3F3D56"/>
<path d="M197.676 536.734L209.065 536.733L214.483 489.906L197.674 489.906L197.676 536.734Z" fill="#A0616A"/>
<path d="M194.771 532.77L197.976 532.77L210.492 527.344L217.2 532.769H217.201C220.992 532.769 224.627 534.375 227.308 537.232C229.988 540.089 231.494 543.965 231.495 548.006V548.501L194.771 548.502L194.771 532.77Z" fill="#2F2E41"/>
<path d="M250.588 536.734L261.977 536.733L267.395 489.906L250.586 489.906L250.588 536.734Z" fill="#A0616A"/>
<path d="M247.682 532.77L250.888 532.77L263.404 527.344L270.112 532.769H270.113C273.903 532.769 277.539 534.375 280.219 537.232C282.9 540.089 284.406 543.965 284.406 548.006V548.501L247.683 548.502L247.682 532.77Z" fill="#2F2E41"/>
<path d="M255.517 280.724L181.438 282.699C167.368 290.844 167.155 308.475 171.765 329.408C171.765 329.408 170.208 341.849 173.321 345.167C176.433 348.485 177.99 348.485 176.433 354.291C174.877 360.097 183.099 369.58 182.101 370.645C181.102 371.71 178.768 377.516 178.768 377.516L186.549 424.794C186.549 424.794 191.996 506.91 193.552 508.568C195.108 510.227 196.664 508.568 195.108 512.716C193.552 516.863 191.996 515.204 193.552 516.863C194.93 518.447 196.229 520.109 197.442 521.84H216.255C216.255 521.84 217.673 513.545 217.673 512.716C217.673 511.886 219.23 506.91 219.23 506.08C219.23 505.251 217.854 503.784 217.854 503.784C217.379 502.098 217.058 500.367 216.895 498.615C216.895 496.956 212.227 433.089 212.227 433.089L221.564 350.144L244.129 431.43C244.129 431.43 244.129 502.762 245.685 504.421C247.242 506.08 247.242 505.251 246.463 508.568C245.685 511.886 242.573 511.057 244.907 513.545C247.242 516.034 248.02 511.886 247.242 516.034L246.464 520.181L269.807 520.537C269.807 520.537 272.919 513.545 271.363 511.057C269.807 508.569 269.9 509.248 271.799 505.176C273.698 501.103 274.476 500.274 273.698 499.445C272.919 498.615 272.919 494.203 272.919 494.203L269.029 414.841C269.029 414.841 268.251 331.067 268.251 328.578C268.192 327.298 268.413 326.021 268.897 324.847V321.469L265.916 309.501L255.517 280.724Z" fill="#2F2E41"/>
<path d="M211.017 116.525C223.729 116.525 234.034 105.54 234.034 91.9894C234.034 78.4388 223.729 67.4539 211.017 67.4539C198.305 67.4539 188 78.4388 188 91.9894C188 105.54 198.305 116.525 211.017 116.525Z" fill="#A0616A"/>
<path d="M222.525 132.741C227.484 135.883 230.45 141.657 232.153 147.533C235.306 158.41 237.203 169.657 237.804 181.023L239.602 215.054L261.877 287.513C242.572 304.926 170.009 291.471 170.009 291.471C170.009 291.471 167.782 290.679 170.009 288.305C172.237 285.93 174.405 288.034 172.178 285.66C169.95 283.285 171.486 285.93 172.228 283.556C172.971 281.181 172.228 282.764 171.486 281.973C170.743 281.181 177.234 274.058 177.234 274.058L171.294 232.466L163.869 148.57C172.779 136.698 190.698 129.7 190.698 129.7L195.328 120.816L218.478 122.79L222.525 132.741Z" fill="#3F3D56"/>
<path d="M229.991 78.9538C231.78 80.3762 233.105 82.3607 233.78 84.6282C234.039 80.9227 234.056 77.2024 233.829 73.4945C233.558 70.8889 231.837 70.3029 229.845 69.6238C228.045 69.0102 226.01 68.3171 225.462 65.7877C218.227 58.2848 205.632 58.6631 197.012 61.2803C192.269 62.7204 189.54 64.5707 189.296 65.6547L189.245 65.8778L189.053 65.9805C185.397 67.9291 184.685 74.0825 184.732 78.9013C184.821 87.9803 187.762 98.2917 189.419 99.1294C189.506 99.1737 189.528 99.1564 189.566 99.1226C192.061 96.9976 195.104 99.2841 196.442 100.527C197.231 94.8844 199.771 89.6862 203.656 85.7627C207.542 81.8393 212.548 79.417 217.877 78.8826C219.617 78.7033 221.343 78.3947 223.043 77.9591C223.905 77.7213 224.792 77.5974 225.682 77.5899C227.215 77.5651 228.719 78.0411 229.991 78.9538Z" fill="#2F2E41"/>
<path d="M372.877 300.274L417.154 252.346L428.819 214.014L410.047 205.92C400.747 215.919 391.175 246.529 391.175 246.529L360.955 289.764C360.713 289.86 360.473 289.961 360.236 290.08C358.845 290.781 357.646 291.852 356.757 293.19C355.867 294.528 355.316 296.088 355.158 297.72C354.999 299.351 355.238 300.999 355.851 302.503C356.464 304.007 357.431 305.317 358.658 306.307C359.885 307.296 361.331 307.932 362.856 308.151C364.381 308.371 365.933 308.168 367.362 307.562C368.792 306.955 370.051 305.966 371.017 304.689C371.983 303.413 372.624 301.892 372.877 300.274Z" fill="#FFB8B8"/>
<path d="M404.926 210.305L428.666 217.626L428.754 217.608C437.48 215.802 444.383 200.343 448.637 187.693C450.036 183.521 449.897 178.938 448.248 174.87C446.599 170.803 443.562 167.555 439.752 165.783C436.934 164.496 433.833 164.075 430.802 164.567C427.771 165.06 424.929 166.447 422.598 168.571L410.762 179.436L404.926 210.305Z" fill="url(#paint1_linear_87_179)"/>
<path d="M384.615 535.31L371.848 535.309L365.774 482.816L384.617 482.817L384.615 535.31Z" fill="#FFB8B8"/>
<path d="M387.872 530.866L384.278 530.866L370.248 524.784L362.729 530.865H362.728C358.478 530.866 354.403 532.665 351.398 535.868C348.393 539.071 346.705 543.416 346.704 547.945V548.5L387.871 548.502L387.872 530.866Z" fill="#2F2E41"/>
<path d="M441.265 535.31L428.498 535.309L422.424 482.816L441.267 482.817L441.265 535.31Z" fill="#FFB8B8"/>
<path d="M444.522 530.866L440.928 530.866L426.898 524.784L419.379 530.865H419.378C415.128 530.866 411.053 532.665 408.048 535.868C405.043 539.071 403.355 543.416 403.355 547.945V548.5L444.521 548.502L444.522 530.866Z" fill="#2F2E41"/>
<path d="M460.733 309.201C460.733 309.201 462.223 328.271 458.496 346.546C454.769 364.822 454.769 416.29 454.769 416.29L446.57 516.585L421.972 514.201L415.263 346.546L391.411 402.961L393.647 410.907L390.668 412.893C390.668 412.893 392.901 428.387 391.411 428.387C389.92 428.387 386.193 430.771 386.193 430.771L389.174 512.612L363.831 511.818L354.886 396.604L364.576 330.655L365.322 317.942L368.676 318.089L370.384 312.777L373.521 303.639L460.733 309.201Z" fill="#2F2E41"/>
<path d="M462.021 313.207L462.154 313.008C469.249 302.42 458.578 276.975 456.968 273.287L463.747 270.942L462.221 257.11L461.498 250.944L466.679 245.421L466.693 245.283L469.675 217.473L474.01 199.002C475.643 192.019 475.504 184.699 473.606 177.793C471.709 170.886 468.121 164.642 463.212 159.702L453.191 149.631L441.013 130.423H421.375L414.641 143.981C408.112 145.589 402.32 149.588 398.273 155.281C394.226 160.973 392.181 167.999 392.494 175.134L394.02 210.693L388.045 254.967L388.042 262.979L381.318 270.944L382.786 278.77L377.669 281.107L375.41 292.346C374.475 293.661 368.303 302.433 368.303 304.831C368.303 305.191 368.553 305.539 369.088 305.926C373.294 308.961 396.541 315.151 406.829 310.762C417.789 306.091 461.356 313.098 461.795 313.17L462.021 313.207Z" fill="url(#paint2_linear_87_179)"/>
<path d="M428.657 124.222C443.021 124.222 454.666 111.809 454.666 96.4971C454.666 81.1851 443.021 68.7722 428.657 68.7722C414.293 68.7722 402.648 81.1851 402.648 96.4971C402.648 111.809 414.293 124.222 428.657 124.222Z" fill="#FFB8B8"/>
<path d="M426.165 124.671C430.193 124.627 434.211 124.217 438.173 123.444C442.096 122.48 450.751 115.346 453.11 111.132C454.862 108 455.914 103.157 456.488 99.6455C457.263 94.9981 457.114 90.2291 456.05 85.6473C454.986 81.0654 453.031 76.7728 450.311 73.0475C449.263 71.4868 447.839 70.2571 446.189 69.4886C446.043 69.4323 445.893 69.383 445.742 69.3415C443.35 68.7406 441.181 67.3914 439.514 65.4672C439.19 65.0776 438.841 64.7134 438.468 64.3773C436.598 62.7811 434.4 61.6794 432.054 61.1622C428.263 60.1919 422.841 61.4078 415.939 64.7793C412.471 66.4732 408.622 66.0006 405.655 65.3997C405.489 65.3701 405.318 65.3876 405.16 65.4502C405.002 65.5128 404.862 65.6185 404.755 65.7566C403.53 67.0472 401.892 67.7959 400.171 67.8521C399.118 67.9304 398.049 69.5172 396.761 71.5836C396.469 72.0527 396.128 72.6001 395.88 72.9341L395.831 72.3068L395.251 73.0241C394.34 74.1516 393.712 75.5064 393.424 76.9624C393.137 78.4185 393.2 79.9284 393.607 81.3516C394.014 82.7747 394.753 84.0649 395.754 85.1018C396.755 86.1388 397.986 86.8889 399.332 87.2822C400.4 87.5538 401.491 87.7085 402.589 87.7439C403.254 87.7893 403.943 87.8362 404.603 87.9398C406.727 88.3427 408.715 89.3255 410.376 90.7923C412.036 92.2592 413.311 94.1598 414.077 96.3088C414.257 96.8055 414.543 97.2512 414.911 97.6116C415.279 97.972 415.72 98.2374 416.199 98.3874C416.679 98.5373 417.184 98.5678 417.676 98.4765C418.169 98.3852 418.635 98.1745 419.039 97.8607C419.71 97.2729 420.505 96.867 421.356 96.6775C422.207 96.4881 423.088 96.5208 423.924 96.7729C424.651 97.1781 425.226 97.8375 425.551 98.6406C425.944 99.5344 426.579 100.283 427.373 100.791C430.081 102.186 430.422 108.688 429.594 114.138C428.796 119.391 427.058 123.224 425.37 123.457C424.069 123.637 423.923 123.74 423.834 123.988L423.755 124.21L423.907 124.412C424.633 124.671 425.404 124.759 426.165 124.671Z" fill="#2F2E41"/>
<path d="M404.587 213.27L392.085 196.29C379.35 200.028 356.755 221.497 356.755 221.497L310.351 242.963C308.802 242.686 307.212 242.848 305.741 243.434C304.269 244.02 302.969 245.009 301.97 246.301C300.971 247.593 300.309 249.142 300.051 250.794C299.793 252.445 299.947 254.14 300.498 255.707C301.05 257.275 301.979 258.66 303.192 259.723C304.405 260.786 305.859 261.49 307.409 261.763C308.958 262.037 310.548 261.87 312.018 261.281C313.488 260.691 314.786 259.699 315.782 258.405L376.57 240.327L404.587 213.27Z" fill="#FFB8B8"/>
<path d="M401.59 217.153L421.317 193.712L422.412 177.103C422.616 173.841 421.96 170.584 420.518 167.699C419.077 164.814 416.907 162.416 414.254 160.777C410.643 158.58 406.385 157.927 402.341 158.949C398.296 159.971 394.766 162.592 392.465 166.283C385.495 177.48 377.996 192.62 381.855 201.156L381.894 201.243L401.59 217.153Z" fill="url(#paint3_linear_87_179)"/>
<path d="M219.777 305.258L168.507 277.269C164.86 275.278 163.652 269.997 165.814 265.497L199.243 195.919C201.405 191.419 206.131 189.378 209.778 191.369L261.047 219.359C264.694 221.349 265.902 226.63 263.74 231.13L230.311 300.708C228.149 305.208 223.423 307.249 219.777 305.258Z" fill="#E6E6E6"/>
<path d="M211.017 292.391L176.184 273.374C172.768 271.51 171.637 266.564 173.661 262.35L201.433 204.546C203.458 200.331 207.884 198.42 211.3 200.284L253.371 223.252C256.786 225.117 257.918 230.062 255.893 234.277L240.806 265.679C231.786 284.452 226.23 300.697 211.017 292.391Z" fill="white"/>
<path d="M228.239 260.824L197.386 243.981C197.009 243.694 196.741 243.273 196.631 242.793C196.522 242.313 196.577 241.807 196.788 241.368C197 240.928 197.352 240.584 197.781 240.399C198.211 240.214 198.688 240.199 199.127 240.358L229.979 257.201C230.357 257.488 230.625 257.91 230.734 258.389C230.844 258.869 230.788 259.375 230.577 259.814C230.366 260.254 230.014 260.598 229.584 260.783C229.155 260.968 228.677 260.983 228.239 260.824Z" fill="url(#paint4_linear_87_179)"/>
<path d="M200.988 254.982L193.947 251.139C193.57 250.852 193.302 250.43 193.192 249.951C193.083 249.471 193.138 248.965 193.35 248.526C193.561 248.086 193.913 247.742 194.343 247.557C194.772 247.371 195.249 247.357 195.688 247.516L202.729 251.359C203.106 251.646 203.374 252.068 203.484 252.547C203.594 253.027 203.538 253.533 203.327 253.972C203.115 254.412 202.763 254.756 202.334 254.941C201.904 255.127 201.427 255.141 200.988 254.982Z" fill="url(#paint5_linear_87_179)"/>
<path d="M210.02 268.948L190.508 258.296C190.131 258.009 189.863 257.588 189.753 257.108C189.644 256.628 189.699 256.123 189.911 255.683C190.122 255.244 190.474 254.9 190.904 254.714C191.333 254.529 191.81 254.514 192.249 254.673L211.76 265.325C212.137 265.611 212.405 266.033 212.515 266.513C212.625 266.993 212.569 267.498 212.358 267.938C212.147 268.377 211.794 268.721 211.365 268.907C210.936 269.092 210.458 269.107 210.02 268.948Z" fill="url(#paint6_linear_87_179)"/>
<path d="M240.448 235.413L209.595 218.569C209.218 218.283 208.95 217.861 208.84 217.381C208.731 216.901 208.786 216.396 208.998 215.956C209.209 215.517 209.561 215.173 209.99 214.987C210.42 214.802 210.897 214.787 211.336 214.946L242.189 231.79C242.566 232.076 242.834 232.498 242.944 232.978C243.053 233.457 242.997 233.963 242.786 234.403C242.575 234.842 242.223 235.186 241.793 235.371C241.364 235.557 240.887 235.571 240.448 235.413Z" fill="url(#paint7_linear_87_179)"/>
<path d="M213.197 229.57L206.156 225.726C205.779 225.44 205.511 225.018 205.402 224.538C205.292 224.059 205.348 223.553 205.559 223.113C205.77 222.674 206.122 222.33 206.552 222.145C206.981 221.959 207.459 221.945 207.897 222.103L214.938 225.947C215.315 226.234 215.583 226.656 215.693 227.135C215.803 227.615 215.747 228.121 215.536 228.56C215.325 229 214.972 229.344 214.543 229.529C214.114 229.714 213.636 229.729 213.197 229.57Z" fill="url(#paint8_linear_87_179)"/>
<path d="M222.229 243.536L202.718 232.884C202.34 232.598 202.072 232.176 201.963 231.696C201.853 231.217 201.909 230.711 202.12 230.271C202.331 229.832 202.683 229.488 203.113 229.303C203.542 229.117 204.02 229.103 204.458 229.261L223.969 239.913C224.347 240.2 224.615 240.621 224.724 241.101C224.834 241.581 224.778 242.087 224.567 242.526C224.356 242.966 224.004 243.31 223.574 243.495C223.145 243.68 222.667 243.695 222.229 243.536Z" fill="url(#paint9_linear_87_179)"/>
<path d="M177.292 244.684L165.709 198.72L196.661 192.474L194.996 224.024L235.664 268.66C237.817 268.567 239.949 269.143 241.8 270.318C243.651 271.494 245.142 273.218 246.089 275.281C247.037 277.343 247.401 279.656 247.138 281.935C246.874 284.215 245.994 286.364 244.604 288.119C243.215 289.875 241.376 291.161 239.313 291.822C237.249 292.483 235.05 292.49 232.983 291.842C230.915 291.193 229.07 289.917 227.671 288.17C226.272 286.423 225.381 284.28 225.105 282.002L177.292 244.684Z" fill="#A0616A"/>
<path d="M162.542 147.184C152.036 156.026 165.521 205.479 165.521 205.479C167.608 203.037 170.034 239.133 172.586 237.904C179.839 234.411 193.132 222.365 198.257 223.347C201.188 223.909 198.117 199.471 198.117 199.471C198.117 199.471 197.552 185.459 196.491 167.447C196.279 162.348 194.861 157.39 192.368 153.033C189.876 148.676 186.389 145.062 182.234 142.527C182.234 142.527 173.048 138.343 162.542 147.184Z" fill="#3F3D56"/>
<path d="M337.353 346.705L309.375 332.622C308.777 332.323 308.25 331.883 307.834 331.335C307.418 330.788 307.123 330.147 306.973 329.461C306.821 328.789 306.814 328.09 306.952 327.416C307.09 326.741 307.37 326.109 307.77 325.566C315.874 314.525 321.439 301.614 324.018 287.867C324.213 286.814 324.745 285.866 325.522 285.185C326.299 284.503 327.274 284.13 328.281 284.128C342.549 284.18 353.214 289.734 359.976 300.634C360.332 301.201 360.569 301.844 360.668 302.518C360.768 303.192 360.728 303.881 360.552 304.538C356.636 318.923 350.678 332.586 342.885 345.05C342.306 345.992 341.427 346.679 340.41 346.983C339.393 347.288 338.307 347.189 337.353 346.705Z" fill="#E6E6E6"/>
<path d="M345.583 326.953L324.191 316.185C323.659 315.918 323.248 315.435 323.049 314.845C322.851 314.254 322.88 313.604 323.132 313.036C323.383 312.469 323.835 312.031 324.389 311.82C324.943 311.608 325.554 311.64 326.086 311.907L347.478 322.675C347.741 322.808 347.978 322.995 348.174 323.225C348.369 323.455 348.521 323.724 348.619 324.016C348.718 324.308 348.761 324.619 348.747 324.929C348.733 325.239 348.661 325.543 348.537 325.824C348.413 326.105 348.237 326.357 348.022 326.566C347.806 326.775 347.553 326.936 347.279 327.041C347.005 327.146 346.714 327.192 346.423 327.177C346.132 327.162 345.846 327.086 345.583 326.953Z" fill="white"/>
<path d="M348.906 319.452L327.514 308.684C326.982 308.416 326.571 307.934 326.373 307.343C326.174 306.752 326.204 306.102 326.455 305.535C326.706 304.967 327.159 304.53 327.713 304.318C328.267 304.106 328.877 304.138 329.409 304.406L350.801 315.174C351.333 315.441 351.744 315.924 351.942 316.514C352.141 317.105 352.111 317.755 351.86 318.323C351.609 318.89 351.156 319.328 350.602 319.539C350.048 319.751 349.438 319.72 348.906 319.452Z" fill="white"/>
<path d="M320.322 83.9592L318.33 84.1917C309.452 47.0005 292.243 21.2348 268.562 9.6797C238.457 -5.00893 201.231 4.85476 163.742 37.4542C126.062 70.22 92.705 121.976 69.8169 183.19L67.8848 182.248C90.8733 120.766 124.401 68.76 162.292 35.812C200.374 2.6975 238.359 -7.23852 269.251 7.83471C293.612 19.721 311.271 46.0445 320.322 83.9592Z" fill="#F2F2F2"/>
<path d="M100.633 132.396C95.4257 144.09 90.4726 156.204 85.9112 168.404C59.6627 238.605 46.3611 310.298 47.4481 375.738L45.3966 375.505C44.3086 309.822 57.6484 237.881 83.9791 167.461C88.5535 155.228 93.5208 143.078 98.7433 131.352L100.633 132.396Z" fill="#F2F2F2"/>
<path d="M99.6485 180.632C94.441 192.326 89.4879 204.441 84.9265 216.64C58.678 286.841 45.3764 358.535 46.4634 423.975L44.412 423.741C43.3239 358.058 56.6638 286.117 82.9944 215.697C87.5689 203.464 92.5361 191.315 97.7585 179.588L99.6485 180.632Z" fill="#F2F2F2"/>
<path d="M44.5106 198.175C46.7783 194.541 45.4361 189.34 41.5125 186.557C37.589 183.775 32.5699 184.465 30.3022 188.098C28.0344 191.732 29.3766 196.933 33.3002 199.716C37.2237 202.498 42.2428 201.808 44.5106 198.175Z" fill="#CCCCCC"/>
<path d="M527.406 329.391C529.674 325.758 528.331 320.557 524.408 317.774C520.484 314.991 515.465 315.681 513.197 319.315C510.93 322.948 512.272 328.15 516.195 330.932C520.119 333.715 525.138 333.025 527.406 329.391Z" fill="#CCCCCC"/>
</g>
<defs>
<linearGradient id="paint0_linear_87_179" x1="309.967" y1="175.792" x2="309.967" y2="209.696" gradientUnits="userSpaceOnUse">
<stop stop-color="#7C3AED"/>
<stop offset="0.46875" stop-color="#7C3AED"/>
</linearGradient>
<linearGradient id="paint1_linear_87_179" x1="427.26" y1="164.367" x2="427.26" y2="217.626" gradientUnits="userSpaceOnUse">
<stop stop-color="#7C3AED"/>
<stop offset="0.46875" stop-color="#7C3AED"/>
</linearGradient>
<linearGradient id="paint2_linear_87_179" x1="421.722" y1="130.423" x2="421.722" y2="313.207" gradientUnits="userSpaceOnUse">
<stop stop-color="#7C3AED"/>
<stop offset="0.46875" stop-color="#7C3AED"/>
</linearGradient>
<linearGradient id="paint3_linear_87_179" x1="401.626" y1="158.478" x2="401.626" y2="217.153" gradientUnits="userSpaceOnUse">
<stop stop-color="#7C3AED"/>
<stop offset="0.46875" stop-color="#7C3AED"/>
</linearGradient>
<linearGradient id="paint4_linear_87_179" x1="213.683" y1="240.249" x2="213.683" y2="260.934" gradientUnits="userSpaceOnUse">
<stop stop-color="#7C3AED"/>
<stop offset="0.46875" stop-color="#7C3AED"/>
</linearGradient>
<linearGradient id="paint5_linear_87_179" x1="198.338" y1="247.406" x2="198.338" y2="255.092" gradientUnits="userSpaceOnUse">
<stop stop-color="#7C3AED"/>
<stop offset="0.46875" stop-color="#7C3AED"/>
</linearGradient>
<linearGradient id="paint6_linear_87_179" x1="201.134" y1="254.564" x2="201.134" y2="269.057" gradientUnits="userSpaceOnUse">
<stop stop-color="#7C3AED"/>
<stop offset="0.46875" stop-color="#7C3AED"/>
</linearGradient>
<linearGradient id="paint7_linear_87_179" x1="225.892" y1="214.837" x2="225.892" y2="235.522" gradientUnits="userSpaceOnUse">
<stop stop-color="#7C3AED"/>
<stop offset="0.46875" stop-color="#7C3AED"/>
</linearGradient>
<linearGradient id="paint8_linear_87_179" x1="210.547" y1="221.994" x2="210.547" y2="229.68" gradientUnits="userSpaceOnUse">
<stop stop-color="#7C3AED"/>
<stop offset="0.46875" stop-color="#7C3AED"/>
</linearGradient>
<linearGradient id="paint9_linear_87_179" x1="213.344" y1="229.152" x2="213.344" y2="243.646" gradientUnits="userSpaceOnUse">
<stop stop-color="#7C3AED"/>
<stop offset="0.46875" stop-color="#7C3AED"/>
</linearGradient>
<clipPath id="clip0_87_179">
<rect width="635" height="549" fill="white" transform="translate(0 0.970215)"/>
</clipPath>
</defs>
</svg>
