<svg width="743" height="506" viewBox="0 0 743 506" fill="none" xmlns="http://www.w3.org/2000/svg">
<g clip-path="url(#clip0_236_320)">
<path d="M451.575 283.279C452.843 283.279 454.058 283.782 454.954 284.677C455.851 285.572 456.354 286.786 456.354 288.052V334.227H548.017C549.285 334.227 550.5 334.73 551.396 335.625C552.293 336.52 552.796 337.734 552.796 339C552.796 340.266 552.293 341.48 551.396 342.375C550.5 343.27 549.285 343.773 548.017 343.773H456.354V503.455H446.797V288.052C446.797 286.786 447.3 285.572 448.196 284.677C449.093 283.782 450.308 283.279 451.575 283.279Z" fill="#E6E6E6"/>
<path d="M196.487 502.37L179.256 502.845C176.639 502.98 174.049 502.255 171.883 500.781C170.012 499.391 169.154 497.511 169.53 495.624L172.921 478.603C173.56 475.392 177.499 472.965 182.287 472.833L191.803 472.57C196.59 472.438 200.658 474.645 201.473 477.815L205.799 494.623C206.279 496.487 205.526 498.411 203.735 499.902C201.653 501.493 199.108 502.36 196.487 502.37Z" fill="#3F3D56"/>
<path d="M301.296 501.884L284.065 502.359C281.448 502.494 278.858 501.768 276.693 500.295C274.821 498.904 273.963 497.025 274.339 495.137L277.73 478.117C278.369 474.906 282.308 472.478 287.096 472.346L296.612 472.084C301.4 471.952 305.467 474.158 306.283 477.329L310.609 494.137C311.089 496.001 310.336 497.925 308.544 499.416C306.463 501.007 303.917 501.874 301.296 501.884Z" fill="#3F3D56"/>
<path d="M136.654 357.385C135.867 357.046 135.219 356.449 134.817 355.692C134.416 354.936 134.286 354.065 134.447 353.224C134.609 352.383 135.053 351.623 135.706 351.068C136.36 350.514 137.183 350.199 138.04 350.175L333.937 344.772C334.43 344.759 334.922 344.842 335.384 345.018C335.845 345.194 336.267 345.46 336.626 345.799C336.985 346.138 337.274 346.544 337.476 346.995C337.677 347.445 337.788 347.931 337.802 348.424C337.828 349.42 337.458 350.386 336.772 351.11C336.087 351.834 335.142 352.256 334.145 352.285L138.247 357.688C137.7 357.704 137.156 357.601 136.654 357.385Z" fill="#3F3D56"/>
<path d="M208.95 292.609L152.953 294.154L158.174 482.993L214.171 481.448L208.95 292.609Z" fill="#E6E6E6"/>
<path d="M210.37 289.216L199.606 318.505L199.616 451.943L212.732 455.699L210.37 289.216Z" fill="#CCCCCC"/>
<path d="M180.66 243.258C170.184 243.555 162.191 261.664 162.383 268.731L162.737 281.524L200.67 280.478L200.316 267.685C200.117 260.618 191.136 242.977 180.66 243.258Z" fill="#3F3D56"/>
<path d="M153.68 372.357C151.723 372.408 149.825 371.683 148.402 370.338C146.98 368.994 146.15 367.141 146.094 365.186L145.518 344.366C145.464 342.411 146.19 340.514 147.536 339.093C148.882 337.672 150.739 336.843 152.697 336.789C154.654 336.735 156.554 337.46 157.976 338.805C159.399 340.149 160.229 342.003 160.283 343.959L160.858 364.779C160.91 366.734 160.183 368.63 158.838 370.051C157.492 371.471 155.637 372.3 153.68 372.357Z" fill="#3F3D56"/>
<path d="M167.89 294.601L167.625 280.842L171.238 280.752L171.503 294.468L174.777 494.37L171.164 494.47" fill="#3F3D56"/>
<path d="M215.371 326.778L150.434 328.569C144.232 321.014 143.669 288.829 156.613 282.703L161.689 274.094L200.824 272.186L205.398 281.25C211.836 286.723 215.156 318.708 215.371 326.778Z" fill="#E6E6E6"/>
<path d="M190.93 311.341L174.508 311.794C171.34 311.882 168.646 307.775 168.504 302.642C168.362 297.508 170.825 293.259 173.994 293.172L190.415 292.719C193.584 292.632 196.278 296.738 196.42 301.872C196.562 307.005 194.099 311.254 190.93 311.341Z" fill="#6C63FF"/>
<path d="M159.13 404.195L125.281 428.078L119.367 481.927L158.855 468.749L159.13 404.195Z" fill="#E6E6E6"/>
<path d="M317.044 290.296L261.047 291.841L266.268 480.68L322.264 479.135L317.044 290.296Z" fill="#E6E6E6"/>
<path d="M262.388 289.847L273.91 318.847L277.367 452.24L264.353 456.336L262.388 289.847Z" fill="#CCCCCC"/>
<path d="M345.047 237.868C349.1 237.868 352.386 233.467 352.386 228.038C352.386 222.609 349.1 218.208 345.047 218.208C340.993 218.208 337.707 222.609 337.707 228.038C337.707 233.467 340.993 237.868 345.047 237.868Z" fill="#E6E6E6"/>
<path d="M287.66 240.975C277.184 241.273 269.191 259.382 269.384 266.448L269.737 279.241L307.67 278.195L307.317 265.402C307.118 258.335 298.137 240.695 287.66 240.975Z" fill="#3F3D56"/>
<path d="M298.507 298.908L298.242 285.149L301.855 285.059L302.12 298.775L305.394 498.677L301.781 498.777" fill="#3F3D56"/>
<path d="M322.372 324.495L257.435 326.286C256.303 319.451 257.768 287.552 263.614 280.42L268.69 271.811L307.825 269.903L312.398 278.967C323.953 279.908 327.994 311.254 322.372 324.495Z" fill="#E6E6E6"/>
<path d="M298.01 311.932L281.589 312.385C278.42 312.472 275.708 307.721 275.544 301.796C275.38 295.87 277.826 290.977 280.994 290.89L297.416 290.437C300.585 290.349 303.296 295.1 303.46 301.026C303.624 306.951 301.179 311.844 298.01 311.932Z" fill="#6C63FF"/>
<path d="M319.81 390.391L352.534 415.791L355.979 469.855L317.137 454.89L319.81 390.391Z" fill="#E6E6E6"/>
<path d="M90.4748 140.671C94.5283 140.671 97.8143 136.269 97.8143 130.84C97.8143 125.411 94.5283 121.01 90.4748 121.01C86.4214 121.01 83.1354 125.411 83.1354 130.84C83.1354 136.269 86.4214 140.671 90.4748 140.671Z" fill="#E6E6E6"/>
<path d="M318.113 60.8297C322.166 60.8297 325.452 56.4285 325.452 50.9993C325.452 45.5702 322.166 41.1689 318.113 41.1689C314.059 41.1689 310.773 45.5702 310.773 50.9993C310.773 56.4285 314.059 60.8297 318.113 60.8297Z" fill="#E6E6E6"/>
<path d="M157.67 180.346C154.315 182.579 150.88 177.264 154.3 175.13C157.656 172.897 161.09 178.213 157.67 180.346Z" fill="#E6E6E6"/>
<path d="M281.915 5.91125C278.56 8.14436 275.125 2.82936 278.545 0.695398C281.901 -1.53759 285.335 3.77742 281.915 5.91125Z" fill="#E6E6E6"/>
<path d="M355.14 109.333L353.005 108.865L353.473 106.732L352.05 106.42L351.581 108.554L349.447 108.087L349.135 109.508L351.27 109.976L350.802 112.108L352.225 112.42L352.694 110.287L354.828 110.754L355.14 109.333Z" fill="#E6E6E6"/>
<path d="M159.464 37.8565C164.599 37.8565 168.762 33.6982 168.762 28.5686C168.762 23.4391 164.599 19.2808 159.464 19.2808C154.328 19.2808 150.165 23.4391 150.165 28.5686C150.165 33.6982 154.328 37.8565 159.464 37.8565Z" fill="#FF6584"/>
<path d="M227.478 16.8124C217.002 17.1096 209.009 35.2185 209.201 42.285L209.555 55.0783L247.488 54.0321L247.134 41.2388C246.935 34.1724 237.954 16.5317 227.478 16.8124Z" fill="#3F3D56"/>
<path d="M250.065 501.255L232.834 501.73C230.217 501.865 227.627 501.139 225.461 499.666C223.59 498.275 222.731 496.396 223.108 494.508L226.499 477.488C227.138 474.277 231.077 471.849 235.865 471.717L245.381 471.455C250.168 471.323 254.236 473.529 255.051 476.7L259.377 493.508C259.857 495.372 259.104 497.296 257.313 498.787C255.231 500.378 252.686 501.245 250.065 501.255Z" fill="#3F3D56"/>
<path d="M257.749 98.2548L201.752 99.7993L212.305 481.516L268.302 479.971L257.749 98.2548Z" fill="#E6E6E6"/>
<path d="M235.343 283.029L235.078 269.269L238.69 269.18L238.955 282.895L242.23 482.798L238.617 482.897" fill="#3F3D56"/>
<path d="M268.774 133.19L192.901 135.283C191.578 127.296 193.289 90.0251 200.12 81.6919L201.991 71.7448L254.38 70.2998L257.121 79.9945C264.644 86.3887 268.523 123.76 268.774 133.19Z" fill="#E6E6E6"/>
<path d="M256.036 71.4736L201.974 72.9647C199.978 73.0196 198.331 71.9732 198.294 70.6273C198.289 70.4334 198.317 70.2401 198.378 70.0558L206.775 44.2158C207.135 43.1093 208.566 42.2967 210.237 42.2506L246.089 41.2618C247.76 41.2158 249.234 41.9482 249.654 43.0332L259.466 68.3709C259.968 69.6669 258.809 71.0155 256.877 71.3831C256.6 71.4357 256.318 71.4659 256.036 71.4736Z" fill="#E6E6E6"/>
<path d="M207.307 281.273C206.819 281.065 206.358 280.798 205.933 280.479C205.325 280.053 204.823 279.494 204.464 278.844C204.106 278.193 203.902 277.47 203.866 276.729L201.902 205.673C201.821 202.731 204.704 200.257 208.329 200.157L256.727 198.822C260.353 198.721 263.367 201.034 263.449 203.975L265.413 275.032C265.419 275.774 265.255 276.507 264.933 277.176C264.611 277.845 264.141 278.431 263.557 278.89C262.264 279.942 260.653 280.526 258.986 280.547L210.589 281.882C209.464 281.92 208.344 281.712 207.307 281.273Z" fill="#3F3D56"/>
<path d="M238.283 66.9005L221.862 67.3535C218.693 67.4409 216.014 63.8649 215.89 59.3831C215.766 54.9013 218.244 51.183 221.413 51.0956L237.834 50.6427C241.003 50.5553 243.682 54.1313 243.806 58.6131C243.93 63.0949 241.452 66.8131 238.283 66.9005Z" fill="#6C63FF"/>
<path d="M626.446 488.341H607.331V349.593C623.32 348.448 635.337 343.558 635.337 337.698C635.337 330.987 619.582 325.548 600.148 325.548C580.714 325.548 564.96 330.987 564.96 337.698C564.96 343.614 577.211 348.54 593.43 349.623V488.341H574.315C572.472 488.341 570.704 489.072 569.4 490.374C568.097 491.676 567.364 493.442 567.364 495.283C567.364 497.125 568.097 498.89 569.4 500.192C570.704 501.494 572.472 502.226 574.315 502.226H626.446C628.289 502.226 630.057 501.494 631.361 500.192C632.664 498.89 633.397 497.125 633.397 495.283C633.397 493.442 632.664 491.676 631.361 490.374C630.057 489.072 628.289 488.341 626.446 488.341Z" fill="#E6E6E6"/>
<path d="M588.076 417.902L581.797 424.737L552.418 403.799L561.684 393.712L588.076 417.902Z" fill="#A0616A"/>
<path d="M572.021 435.941C572.083 437.469 572.448 438.97 573.094 440.356C573.741 441.743 574.657 442.987 575.788 444.018L576.065 444.275L584.299 435.311L596.307 422.239L587.443 414.11L585.842 415.856L585.675 416.036L577.697 419.805L576.007 420.608L575.718 420.743L575.081 427.568V427.574C574.041 428.696 573.235 430.014 572.71 431.45C572.184 432.887 571.95 434.413 572.021 435.941Z" fill="#2F2E41"/>
<path d="M620.606 486.081L611.72 488.777L597.08 455.827L610.194 451.848L620.606 486.081Z" fill="#A0616A"/>
<path d="M596.725 502.325L596.834 502.691L625.485 493.998L621.988 482.498L619.725 483.185L619.488 483.256L608.836 482.28L608.521 482.254L604.49 487.808C601.533 488.705 599.054 490.738 597.598 493.461C596.142 496.183 595.828 499.372 596.725 502.325Z" fill="#2F2E41"/>
<path d="M547.336 313.558C547.336 313.558 490.605 368.268 526.47 385.203H537.554C539.964 377.38 543.668 370.015 548.512 363.414C549.559 362.045 553.482 362.323 554.572 360.989C561.225 352.842 568.437 345.846 573.419 346.124L572.227 383.925L570.298 397.409C569.286 404.379 597.864 465.241 597.864 465.241L615.827 458.189C615.827 458.189 597.112 408.061 596.893 400.834L611.891 321.374L547.336 313.558Z" fill="#2F2E41"/>
<path d="M542.605 316.257C542.895 316.669 543.272 317.011 543.711 317.258C544.434 317.667 545.217 317.957 546.032 318.119C558.805 321.015 600.531 327.018 611.362 324.154C612.693 323.808 613.561 323.32 613.844 322.678C614.75 320.649 614.634 312.077 614.101 301.726C614.004 299.787 611.864 297.688 611.735 295.659C611.645 294.137 613.567 292.705 613.464 291.158C612.757 280.692 611.845 270.027 611.234 263.285C610.848 258.951 610.585 256.241 610.585 256.241L617.174 214.744L616.865 214.236L616.518 214.063L595.272 203.559L594.115 200.605C593.78 199.755 593.197 199.024 592.442 198.508C591.687 197.992 590.794 197.713 589.879 197.709L575.885 197.651C575.159 197.647 574.442 197.817 573.795 198.145C573.147 198.473 572.588 198.951 572.163 199.539L568.37 204.785L543.3 220.837L543.396 221.132L555.16 256.89L555.218 259.676V259.683L555.655 282.092L554.44 285.129L555.809 290.111C555.809 290.111 555.179 295.935 551.804 300.262C548.744 304.192 544.849 308.288 543.087 311.614V311.621C542.11 313.457 541.783 315.05 542.605 316.257Z" fill="#6C63FF"/>
<path d="M523.746 381.953L526.778 385.78C526.778 385.78 554.666 405.268 555.624 407.09L560.031 411.255L570.695 399.869L565.149 392.926C560.711 387.37 554.977 382.985 548.449 380.155L539.95 372.624L523.746 381.953Z" fill="#2F2E41"/>
<path d="M624.201 329.182L619.122 280.082L617.782 259.874L631.997 257.307C631.997 257.307 631.433 271.756 633.296 279.908C635.133 287.953 633.539 328.104 633.426 329.178C634.47 330.11 635.206 331.337 635.536 332.696C635.867 334.056 635.776 335.483 635.277 336.79C634.778 338.097 633.893 339.221 632.74 340.015C631.587 340.809 630.22 341.234 628.819 341.235C627.419 341.235 626.051 340.812 624.897 340.019C623.743 339.226 622.857 338.103 622.357 336.796C621.856 335.49 621.765 334.062 622.094 332.703C622.423 331.343 623.158 330.116 624.201 329.182Z" fill="#A0616A"/>
<path d="M607.274 254.822L611.234 263.285L612.616 266.232L616.338 285.7L618.196 287.671L619.796 294.034L620.548 293.88L634.112 291.074L638.065 290.259C638.956 288.776 639.307 287.031 639.059 285.32C638.811 283.608 637.978 282.034 636.703 280.865C636.433 280.621 636.208 280.384 636.214 280.159C636.439 266.617 635.61 241.891 628.121 231.714C625.742 228.484 624.315 225.267 622.239 223.02C622.233 223.014 622.233 223.007 622.226 223.007L617.173 214.744L616.865 214.236L616.518 214.063L607.274 254.822Z" fill="#6C63FF"/>
<path d="M583.976 194.173C594.26 194.173 602.596 185.846 602.596 175.575C602.596 165.303 594.26 156.977 583.976 156.977C573.693 156.977 565.356 165.303 565.356 175.575C565.356 185.846 573.693 194.173 583.976 194.173Z" fill="#A0616A"/>
<path d="M606.086 171.573C606.631 168.448 607.056 164.396 605.494 160.794C604.174 157.763 600.872 154.921 597.201 155.304C597.375 154.62 597.356 153.901 597.145 153.227C596.935 152.553 596.541 151.951 596.008 151.487C594.813 150.55 593.42 149.896 591.935 149.574C588.485 148.561 584.911 147.511 581.221 147.491C577.079 147.469 573.41 148.886 571.16 151.385L571.104 151.466L570.43 153.074C570.34 153.29 570.204 153.484 570.031 153.642C569.859 153.801 569.655 153.92 569.432 153.992C569.209 154.065 568.972 154.089 568.738 154.06C568.505 154.032 568.281 153.952 568.082 153.827C567.864 153.693 567.614 153.618 567.358 153.609C567.102 153.601 566.848 153.66 566.622 153.779C566.395 153.899 566.204 154.076 566.067 154.292C565.93 154.508 565.851 154.756 565.84 155.012L565.804 155.698L564.838 155.314C564.595 155.216 564.331 155.185 564.073 155.223C563.814 155.261 563.571 155.367 563.367 155.531C563.164 155.695 563.007 155.91 562.915 156.154C562.822 156.398 562.797 156.662 562.841 156.92L562.969 157.736C562.761 157.699 562.548 157.703 562.342 157.75C562.136 157.796 561.942 157.883 561.77 158.006C561.525 158.186 561.343 158.44 561.251 158.73C561.159 159.02 561.161 159.332 561.258 159.62C562.008 161.757 563.289 163.668 564.98 165.174C565.739 165.86 566.59 166.437 567.507 166.89C567.698 166.986 567.896 167.077 568.102 167.163C575.522 170.341 583.462 172.138 591.529 172.464C590.766 173.917 590.273 175.497 590.074 177.126C589.964 178.05 590.109 178.987 590.494 179.835C590.88 180.683 591.49 181.409 592.259 181.935C592.592 182.125 592.942 182.286 593.305 182.414C593.651 182.541 593.986 182.696 594.308 182.878C594.779 183.162 595.166 183.566 595.431 184.048C595.696 184.53 595.828 185.074 595.815 185.624C595.802 186.174 595.644 186.71 595.357 187.179C595.069 187.648 594.663 188.033 594.179 188.295C594.179 188.295 595.565 189.985 595.786 189.956C596.669 189.756 597.467 189.285 598.067 188.609C602.1 184.698 604.798 178.97 606.086 171.573Z" fill="#2F2E41"/>
<path d="M687.603 459.064L688.413 440.888C696.849 436.384 706.259 434.005 715.824 433.958C702.659 444.709 704.304 465.433 695.378 479.891C692.56 484.379 688.767 488.176 684.279 491.001C679.792 493.825 674.726 495.605 669.456 496.208L658.439 502.945C656.927 494.527 657.26 485.882 659.416 477.605C661.571 469.328 665.498 461.616 670.924 455.001C674.005 451.32 677.538 448.041 681.44 445.242C684.078 452.191 687.603 459.064 687.603 459.064Z" fill="#F2F2F2"/>
<path d="M318.431 367.744C316.473 367.796 314.575 367.07 313.153 365.726C311.731 364.382 310.901 362.529 310.844 360.574L310.269 339.754C310.217 337.8 310.944 335.905 312.29 334.486C313.636 333.067 315.491 332.24 317.448 332.186C319.404 332.132 321.302 332.856 322.724 334.198C324.146 335.541 324.977 337.393 325.033 339.347L325.609 360.167C325.661 362.122 324.934 364.018 323.588 365.438C322.243 366.859 320.388 367.688 318.431 367.744Z" fill="#3F3D56"/>
<path d="M644.123 443.838C632.905 443.838 620.609 443.415 607.235 442.568C538.063 438.18 448.464 422.926 354.943 399.617C261.422 376.307 175.152 347.725 112.026 319.138C81.2753 305.212 57.6743 292.03 41.8794 279.958C25.1566 267.177 17.8419 256.037 20.1374 246.847C24.6102 228.945 64.2149 225.028 96.6515 224.895L96.6625 227.499C52.1185 227.681 25.8397 234.777 22.6668 247.478C18.625 263.654 51.5877 288.909 113.102 316.767C176.09 345.291 262.201 373.818 355.574 397.091C448.947 420.363 538.381 435.591 607.401 439.969C674.804 444.246 715.783 437.42 719.825 421.243C723.18 407.812 701.059 388.026 657.537 365.529L658.735 363.217C690.359 379.564 727.066 403.009 722.354 421.874C720.058 431.063 708.361 437.464 687.587 440.899C675.745 442.857 661.2 443.838 644.123 443.838Z" fill="#CCCCCC"/>
<path d="M48.7063 426.783C39.804 426.783 34.0165 424.573 31.4549 420.181C26.4035 411.519 34.8637 396.321 56.6001 375.009L58.4261 376.867C38.2352 396.664 29.4563 411.581 33.7068 418.87C36.3965 423.481 44.4011 425.133 56.8602 423.647C69.2285 422.172 85.6195 417.776 105.578 410.582C146.667 395.77 198.217 370.786 250.732 340.231C303.245 309.677 350.432 277.212 383.602 248.818C389.973 243.363 395.755 238.115 400.787 233.221C407.393 226.954 413.487 220.17 419.011 212.934C426.451 202.843 428.962 195.073 426.273 190.461C421.781 182.76 402.912 183.484 373.138 192.503L372.382 190.012C404.326 180.336 423.216 180.046 428.526 189.151C431.825 194.808 429.33 203.329 421.111 214.478C415.502 221.829 409.313 228.72 402.605 235.087C397.534 240.019 391.711 245.303 385.298 250.794C352.013 279.288 304.689 311.85 252.044 342.48C199.397 373.112 147.695 398.168 106.463 413.031C86.3187 420.292 69.7339 424.734 57.1691 426.232C54.3615 426.582 51.5356 426.766 48.7063 426.783Z" fill="#CCCCCC"/>
<path d="M524.437 319.889C517.995 319.761 483.393 318.769 477.719 319.013C477.398 317.89 466.641 331.659 466.38 331.745C466.205 331.929 466.078 332.152 466.009 332.395C465.94 332.639 465.93 332.896 465.982 333.144C466.034 333.392 466.145 333.623 466.305 333.819C466.466 334.015 466.672 334.169 466.905 334.268C467.537 334.652 523.321 333.621 523.997 333.755C524.289 333.751 524.574 333.664 524.819 333.504C525.064 333.345 525.259 333.12 525.381 332.854L525.754 332.02C525.793 330.593 526.261 323.3 525.841 322.053C525.944 321.819 525.987 321.563 525.967 321.308C525.946 321.054 525.862 320.808 525.723 320.593C525.584 320.379 525.394 320.202 525.169 320.079C524.945 319.956 524.693 319.891 524.437 319.889Z" fill="#E6E6E6"/>
<path opacity="0.17" d="M525.754 332.019C525.427 332.804 525.008 333.792 523.997 333.755L467.494 334.389C467.227 334.386 466.965 334.314 466.733 334.181C466.502 334.048 466.309 333.857 466.172 333.628C466.035 333.398 465.96 333.137 465.954 332.871C465.947 332.604 466.009 332.34 466.134 332.104L525.754 332.019Z" fill="black"/>
<path d="M477.983 318.843C477.375 317.793 462.269 243.135 461.008 242.511L450.695 229.909L449.773 229.216C448.491 228.513 445.416 228.989 445.693 230.944C448.116 242.547 463.7 308.631 464.042 318.934L465.918 332.06C465.951 332.283 466.031 332.497 466.152 332.688C466.274 332.878 466.434 333.041 466.622 333.166C466.81 333.291 467.023 333.376 467.245 333.414C467.468 333.452 467.697 333.443 467.916 333.387C468.454 333.33 468.967 333.133 469.405 332.816C469.844 332.5 470.192 332.075 470.416 331.583C470.556 331.12 478.689 319.112 477.983 318.843Z" fill="#E6E6E6"/>
<path opacity="0.17" d="M450.692 229.909L470.418 331.586C469.758 333.254 466.671 334.422 465.952 332.234C465.94 332.231 445.716 231.007 445.695 230.946C445.48 228.51 449.51 228.433 450.692 229.909Z" fill="black"/>
<path d="M451.287 234.067L461.305 248.015L472.549 301.356L467.322 305.911L451.287 234.067Z" fill="#6C63FF"/>
<path d="M517.971 327.081L520.742 327.194C520.785 326.383 520.92 325.58 521.142 324.799C521.559 322.82 521.932 320.468 520.203 320.477C519.031 320.364 518.631 321.848 518.422 323.462C518.369 324.679 518.218 325.889 517.971 327.081Z" fill="#2F2E41"/>
<path d="M502.071 323.358L503.939 323.427L504.842 323.462C504.825 322.473 505.285 320.433 504.165 319.93C503.986 319.853 503.794 319.815 503.6 319.817C502.549 319.756 502.236 320.555 502.14 321.475C502.079 322.03 502.105 322.62 502.088 323.08C502.088 323.176 502.079 323.271 502.071 323.358Z" fill="#2F2E41"/>
<path d="M496.536 323.133L498.413 323.211L499.308 323.246C499.29 322.109 499.89 319.627 498.065 319.592C496.38 319.496 496.597 321.64 496.553 322.855C496.553 322.95 496.545 323.046 496.536 323.133Z" fill="#2F2E41"/>
<path d="M491.002 322.916L492.87 322.985L493.773 323.02C493.756 321.891 494.355 319.409 492.531 319.375C490.845 319.271 491.062 321.414 491.019 322.638C491.019 322.733 491.01 322.829 491.002 322.916Z" fill="#2F2E41"/>
<path d="M485.467 322.69L487.344 322.768L488.239 322.803C488.221 321.666 488.821 319.192 486.996 319.149C485.311 319.054 485.528 321.197 485.484 322.412C485.484 322.508 485.476 322.603 485.467 322.69Z" fill="#2F2E41"/>
<path d="M479.932 322.473L481.8 322.543L482.704 322.577C482.687 321.536 483.191 319.358 481.852 318.984H481.844C481.72 318.948 481.591 318.93 481.461 318.932C481.304 318.918 481.145 318.933 480.992 318.976H480.984C479.819 319.28 479.984 321.102 479.95 322.195C479.95 322.291 479.941 322.386 479.932 322.473Z" fill="#2F2E41"/>
<path d="M512.384 321.883L515.156 321.996C515.156 321.892 515.155 321.779 515.164 321.649C515.233 320.988 515.244 320.324 515.199 319.661C515.103 318.932 514.791 318.36 513.913 318.342C513.018 318.29 512.662 318.863 512.523 319.601C512.491 319.726 512.467 319.854 512.453 319.982V319.991C512.384 320.668 512.427 321.397 512.384 321.883Z" fill="#2F2E41"/>
<path d="M506.849 321.657L509.621 321.77C509.68 321.025 509.697 320.278 509.673 319.531C509.595 318.767 509.291 318.143 508.379 318.125C507.458 318.064 507.101 318.689 506.962 319.462C506.832 320.208 506.901 321.102 506.849 321.657Z" fill="#2F2E41"/>
<path d="M501.315 321.44L502.14 321.475L504.086 321.553C504.078 321.136 504.156 320.529 504.165 319.93C504.172 319.751 504.166 319.571 504.147 319.392C504.078 318.585 503.791 317.917 502.844 317.899C501.88 317.847 501.541 318.516 501.419 319.331C501.297 320.06 501.367 320.902 501.315 321.44Z" fill="#2F2E41"/>
<path d="M512.436 326.864L515.208 326.968C515.199 325.84 515.79 323.358 513.965 323.323C512.141 323.211 512.54 325.727 512.436 326.864Z" fill="#2F2E41"/>
<path d="M506.901 326.639L509.673 326.751C509.664 325.615 510.255 323.133 508.431 323.098C506.606 322.994 507.006 325.51 506.901 326.639Z" fill="#2F2E41"/>
<path d="M501.367 326.422L504.139 326.526C504.13 325.719 504.434 324.226 503.939 323.428C503.831 323.251 503.677 323.107 503.493 323.01C503.309 322.914 503.103 322.869 502.896 322.881C502.612 322.851 502.326 322.921 502.088 323.08C501.202 323.662 501.454 325.502 501.367 326.422Z" fill="#2F2E41"/>
<path d="M495.832 326.196L498.604 326.309C498.595 325.502 498.891 324.018 498.413 323.211C498.305 323.031 498.15 322.884 497.965 322.787C497.779 322.689 497.571 322.643 497.362 322.655C497.077 322.624 496.791 322.695 496.554 322.855C495.667 323.454 495.919 325.285 495.832 326.196Z" fill="#2F2E41"/>
<path d="M490.298 325.979L493.069 326.083C493.061 325.276 493.365 323.784 492.87 322.985C492.762 322.808 492.608 322.664 492.424 322.568C492.24 322.472 492.034 322.427 491.827 322.438C491.543 322.408 491.257 322.479 491.019 322.638C490.133 323.219 490.385 325.059 490.298 325.979Z" fill="#2F2E41"/>
<path d="M484.763 325.754L487.535 325.866C487.526 325.059 487.821 323.575 487.344 322.768C487.237 322.588 487.082 322.441 486.896 322.343C486.711 322.245 486.502 322.2 486.292 322.213C486.008 322.182 485.721 322.252 485.484 322.412C484.598 323.011 484.85 324.842 484.763 325.754Z" fill="#2F2E41"/>
<path d="M479.229 325.536L482 325.64C481.992 324.833 482.287 323.349 481.8 322.542C481.693 322.365 481.539 322.22 481.356 322.124C481.172 322.027 480.965 321.983 480.758 321.996C480.473 321.965 480.187 322.036 479.95 322.195C479.064 322.785 479.316 324.616 479.229 325.536Z" fill="#2F2E41"/>
<path d="M510.53 317.514L531.654 272.889L539.641 254.275L527.088 247.135C527.088 247.135 522.813 260.95 518.344 268.022C513.935 274.999 502.081 313.398 501.831 314.448C500.536 314.981 499.434 315.894 498.67 317.066C497.906 318.239 497.516 319.615 497.552 321.013C497.588 322.412 498.049 323.766 498.872 324.897C499.696 326.029 500.844 326.884 502.164 327.349C503.485 327.815 504.916 327.869 506.268 327.504C507.62 327.139 508.829 326.373 509.736 325.307C510.643 324.241 511.204 322.926 511.346 321.534C511.488 320.142 511.203 318.741 510.53 317.514Z" fill="#A0616A"/>
<path d="M510.401 276.199L526.377 285.825L530 280.356L532.413 279.112L542.4 261.984L551.23 252.998L562.896 215.751L547.717 218.026L547.697 218.033C544.993 219.465 542.574 222.026 539.259 224.283C528.81 231.396 519.8 254.442 515.508 267.292C515.438 267.503 515.149 267.65 514.813 267.794C513.221 268.473 511.913 269.681 511.109 271.212C510.306 272.743 510.056 274.504 510.401 276.199Z" fill="#6C63FF"/>
</g>
<defs>
<clipPath id="clip0_236_320">
<rect width="743" height="505" fill="white" transform="translate(0 0.158203)"/>
</clipPath>
</defs>
</svg>
